<svg xmlns="http://www.w3.org/2000/svg" width="256.22" height="44.73" viewBox="0 0 256.22 44.73"><defs><style>.a{fill:#fff;}.b{fill:#de323c;}</style></defs><title>Abacus_Logo_19_RGB_neg</title><path class="a" d="M185.13,29.58,188.62,33a15.39,15.39,0,0,1-11.74,5.19c-8.82,0-15.48-6.75-15.48-15.79s6.78-15.79,15.44-15.79a15.29,15.29,0,0,1,11.34,4.8l-3.53,3.44a10.51,10.51,0,0,0-7.77-3.36c-6.08,0-10.16,5.08-10.16,10.91s4.2,10.9,10.21,10.9A10.88,10.88,0,0,0,185.13,29.58Z" transform="translate(0 0)"/><path class="a" d="M245.35,25c-4.84-1.79-9.55-4.19-9.55-9.42,0-4.81,4-8.9,9.9-8.9a13,13,0,0,1,10,4.84l-3.62,3.58a8.39,8.39,0,0,0-6.37-3.45c-2.41,0-4.62,1.36-4.62,3.75,0,5.9,15.13,3.75,15.13,14.09,0,5.7-4.68,8.77-10.42,8.77A13.07,13.07,0,0,1,234.44,32l3.93-3.32c1.7,2.71,4.27,4.58,7.46,4.58,2.59,0,5.1-1.09,5.1-3.7S247.94,25.88,245.35,25Z" transform="translate(0 0)"/><path class="a" d="M223.9,7.16V26.61c0,6.7-4.56,11.61-11.77,11.61s-11.78-4.92-11.78-11.61V7.16h5.23V26c0,4.26,2.1,7.28,6.55,7.28s6.54-3,6.54-7.28V7.16Z" transform="translate(0 0)"/><polygon class="a" points="68.3 6.18 53.77 37.69 59.1 37.69 68.3 17.56 77.47 37.69 82.81 37.69 68.3 6.18"/><polygon class="a" points="138.93 6.18 124.4 37.69 129.75 37.69 138.93 17.56 148.11 37.69 153.46 37.69 138.93 6.18"/><path class="a" d="M110.38,21.51c1.75-.88,3.18-2.85,3.18-6,0-5.47-4.31-8.33-9.72-8.33h-9.9V37.69h11c5.52,0,10.2-3.41,10.2-9.07C115.13,24.86,112.61,22.07,110.38,21.51Zm-5.61,11.85H98.84V11.49h4.77c2.87,0,5,1.29,5,4.17s-1.87,4.11-4.79,4.11l1,4.68c3.08,0,5.31,1.3,5.31,4.35C110.17,32.08,108,33.36,104.77,33.36Z" transform="translate(0 0)"/><path class="b" d="M12.17,13.79a1.85,1.85,0,1,0-2.62,0,1.85,1.85,0,0,0,2.62,0Z" transform="translate(0 0)"/><path class="b" d="M17.16,18.66a1.85,1.85,0,1,0-2.61,0h0A1.87,1.87,0,0,0,17.16,18.66Z" transform="translate(0 0)"/><path class="b" d="M14.2,5.88a2.25,2.25,0,1,0,3.19,0h0A2.25,2.25,0,0,0,14.2,5.88Z" transform="translate(0 0)"/><path class="b" d="M22.37,10.81a2.25,2.25,0,1,0,0,3.08,2.24,2.24,0,0,0,0-3.08Z" transform="translate(0 0)"/><path class="b" d="M27.3,15.74a2.25,2.25,0,1,0,0,3.18h0a2.23,2.23,0,0,0,0-3.15Z" transform="translate(0 0)"/><path class="b" d="M33.74,25.36a2.64,2.64,0,1,0,3.74,0h0A2.64,2.64,0,0,0,33.74,25.36Z" transform="translate(0 0)"/><path class="b" d="M28.78,30.32a2.64,2.64,0,1,0,3.74,0h0A2.64,2.64,0,0,0,28.78,30.32Z" transform="translate(0 0)"/><path class="b" d="M23.84,35.25a2.64,2.64,0,1,0,3.74,0A2.65,2.65,0,0,0,23.84,35.25Z" transform="translate(0 0)"/><path class="b" d="M18.89,40.22a2.64,2.64,0,1,0,3.74,0h0a2.63,2.63,0,0,0-3.72,0Z" transform="translate(0 0)"/><path class="b" d="M42.39,20.5a2.64,2.64,0,1,0,0,3.73h0a2.63,2.63,0,0,0,0-3.72Z" transform="translate(0 0)"/><path class="b" d="M33.72,19.37a2.64,2.64,0,1,0,0-3.74A2.64,2.64,0,0,0,33.72,19.37Z" transform="translate(0 0)"/><path class="b" d="M28.76,14.41a2.64,2.64,0,1,0,0-3.74A2.64,2.64,0,0,0,28.76,14.41Z" transform="translate(0 0)"/><path class="b" d="M23.83,9.47a2.64,2.64,0,1,0,0-3.73h0a2.63,2.63,0,0,0,0,3.72Z" transform="translate(0 0)"/><path class="b" d="M22.6,4.51a2.64,2.64,0,1,0-3.73,0h0a2.62,2.62,0,0,0,3.71,0Z" transform="translate(0 0)"/><path class="b" d="M14.2,35.59a2.25,2.25,0,1,0,3.19,0h0a2.23,2.23,0,0,0-3.15,0Z" transform="translate(0 0)"/><path class="b" d="M9.61,30.89a1.85,1.85,0,1,0,2.62,0,1.85,1.85,0,0,0-2.62,0Z" transform="translate(0 0)"/><path class="b" d="M14.48,28.51a1.85,1.85,0,1,0,0-2.62A1.86,1.86,0,0,0,14.48,28.51Z" transform="translate(0 0)"/><path class="b" d="M22.06,23.61a1.85,1.85,0,1,0-2.62,0A1.85,1.85,0,0,0,22.06,23.61Z" transform="translate(0 0)"/><path class="b" d="M9.9,21.17a1.45,1.45,0,1,0,2,0s0,0,0,0A1.46,1.46,0,0,0,9.9,21.17Z" transform="translate(0 0)"/><path class="b" d="M4.87,26.07a1.46,1.46,0,1,0,1.92,2.2.93.93,0,0,0,.14-.14,1.46,1.46,0,0,0-2.06-2.06Z" transform="translate(0 0)"/><path class="b" d="M5.29,16.52a1.46,1.46,0,0,0,0,2.05,1.45,1.45,0,1,0,2.05-2.05h0a1.43,1.43,0,0,0-2,0Z" transform="translate(0 0)"/><path class="b" d="M.38,21.37a1.28,1.28,0,0,0,0,1.8l0,0a1.28,1.28,0,0,0,1.8,0l0,0a1.29,1.29,0,0,0-.12-1.82A1.3,1.3,0,0,0,.38,21.37Z" transform="translate(0 0)"/><path class="b" d="M19.13,33.77a2.25,2.25,0,1,0,0-3.18h0A2.26,2.26,0,0,0,19.13,33.77Z" transform="translate(0 0)"/><path class="b" d="M24.06,25.66a2.25,2.25,0,1,0,3.19,0h0A2.26,2.26,0,0,0,24.06,25.66Z" transform="translate(0 0)"/><path class="b" d="M29.06,20.73a2.25,2.25,0,1,0,3.19,0h0A2.25,2.25,0,0,0,29.06,20.73Z" transform="translate(0 0)"/></svg>